<svg width="162" height="52" viewBox="0 0 162 52" fill="none" xmlns="http://www.w3.org/2000/svg">
<g clip-path="url(#clip0_75_22)">
<path d="M47.2727 0.262573H4.72734C2.26159 0.262573 0.262695 2.26146 0.262695 4.72722V47.2726C0.262695 49.7384 2.26159 51.7373 4.72734 51.7373H47.2727C49.7385 51.7373 51.7374 49.7384 51.7374 47.2726V4.72722C51.7374 2.26146 49.7385 0.262573 47.2727 0.262573Z" stroke="#D90429" stroke-width="0.525253"/>
<g filter="url(#filter0_i_75_22)">
<path fill-rule="evenodd" clip-rule="evenodd" d="M39.0077 18.6278V15.8765C38.8849 15.4827 38.7418 15.1026 38.5784 14.7364V18.6278H38.0532V13.7222C37.9186 13.4962 37.7751 13.2763 37.6227 13.0625V18.6278H37.0974V12.3915C36.96 12.2311 36.8169 12.0747 36.6681 11.9222V18.6278H36.1428V11.4213C36.0038 11.2978 35.8605 11.1772 35.7129 11.0594V18.6278H35.1877V10.656C35.0473 10.5537 34.9044 10.4543 34.759 10.3578V18.6278H34.2337V10.0292C34.0922 9.94576 33.9485 9.86489 33.8026 9.78663V18.6278H33.2773V9.52077C31.1769 8.51872 28.6446 8.0177 25.6804 8.0177C24.6801 8.0177 24.3104 9.04326 23.8095 10.4332C23.0309 12.5931 21.9353 15.6328 17.663 17.0709C15.3479 18.22 15.2359 16.4526 15.1369 14.8897C15.0644 13.7463 14.9989 12.7123 14.0829 13.0097C13.1731 13.9194 12.3684 16.573 12.3684 18.8589C12.3684 21.1112 12.8895 22.9433 13.9316 24.3552C14.9108 25.6098 16.0293 26.5998 17.2871 27.3252H17.8066C17.8259 27.5601 17.9299 27.6776 18.1186 27.6776C18.188 27.6776 18.2457 27.6622 18.292 27.6314C18.342 27.5967 18.3671 27.5447 18.3671 27.4754C18.3671 27.3791 18.3151 27.3021 18.2111 27.2443C18.1071 27.1827 17.9453 27.1133 17.7257 27.0363C17.4638 26.9438 17.2462 26.8533 17.0729 26.7647C16.9034 26.6761 16.757 26.5471 16.6337 26.3776C16.5105 26.2081 16.4508 25.9905 16.4546 25.7247C16.4546 25.459 16.522 25.2336 16.6569 25.0487C16.7955 24.86 16.9823 24.7175 17.2173 24.6212C17.4561 24.5249 17.7238 24.4767 18.0204 24.4767C18.5211 24.4767 18.9179 24.5923 19.2106 24.8234C19.5072 25.0545 19.6632 25.38 19.6786 25.7998H18.2977C18.2939 25.6843 18.265 25.6015 18.2111 25.5514C18.1571 25.5013 18.0917 25.4763 18.0146 25.4763C17.9607 25.4763 17.9164 25.4956 17.8817 25.5341C17.8471 25.5687 17.8297 25.6188 17.8297 25.6843C17.8297 25.7767 17.8798 25.8538 17.98 25.9154C18.084 25.9732 18.2477 26.0444 18.4711 26.1292C18.7291 26.2255 18.941 26.3179 19.1066 26.4065C19.2761 26.4951 19.4225 26.6184 19.5457 26.7763C19.669 26.9342 19.7306 27.1326 19.7306 27.3714C19.7306 27.6218 19.669 27.8471 19.5457 28.0474C19.4902 28.1359 19.4234 28.2158 19.3452 28.2871C19.6136 28.3988 19.8923 28.5114 20.1813 28.6248V24.5461H22.9084V25.5687H21.464V26.0714H22.7351V27.0363H21.464V27.6141H22.9084V28.6367H20.2118C21.1395 28.9999 22.1724 29.3712 23.3105 29.7505C25.4955 30.4565 27.0755 31.0952 28.0504 31.6667C29.0252 32.2381 29.5127 33.0449 29.5127 34.087C29.5127 34.54 28.9267 34.5188 28.3056 34.4963C27.8203 34.4788 27.3136 34.4605 27.0482 34.6669C26.7925 34.8624 26.8148 35.2816 26.8363 35.6852C26.8627 36.1838 26.888 36.6587 26.3864 36.6587C25.3779 36.6587 24.5543 36.3729 23.9156 35.8015C23.2769 35.23 22.9071 34.3223 22.8062 33.0785H12.2676C12.4693 36.7427 13.898 39.5665 16.5536 41.5498C19.2093 43.4996 22.6046 44.4744 26.7393 44.4744C29.4622 44.4744 31.8154 43.987 33.7987 43.0121C35.8157 42.0373 37.3452 40.7094 38.3873 39.0286C39.4631 37.3478 40.0009 35.4485 40.0009 33.3307C40.0009 31.2465 39.4631 29.532 38.3873 28.1874C37.4228 26.9117 36.271 25.9096 34.9321 25.1811V28.6367H33.6494L32.2917 26.5798V28.6367H31.009V24.5461H32.2917L33.6494 26.6376V24.5461H33.6884C32.4032 23.9278 30.86 23.3095 29.0589 22.6912C27.5461 22.1533 26.4032 21.7163 25.63 21.3801C24.8568 21.0103 24.2013 20.5901 23.6635 20.1195C23.1592 19.6153 22.9071 19.027 22.9071 18.3547C22.9071 17.5479 23.1424 16.926 23.613 16.489C24.0837 16.052 24.6888 15.8335 25.4283 15.8335C26.4032 15.8335 27.1932 16.1024 27.7982 16.6402C28.437 17.1781 28.7731 17.9849 28.8067 19.0606H39.5471C39.5401 18.915 39.5311 18.7707 39.5201 18.6278H39.0077ZM26.1362 28.6367L27.5114 24.5461H26.1478L25.31 27.3598L24.4665 24.5461H23.1029L24.478 28.6367H26.1362ZM29.0812 26.0714V25.5687H30.5256V24.5461H27.7985V28.6367H30.5256V27.6141H29.0812V27.0363H30.3523V26.0714H29.0812Z" fill="#D90429"/>
</g>
<path d="M64.4516 23.224C63.6303 23.224 62.8369 23.1307 62.0716 22.944C61.3063 22.7573 60.6763 22.5147 60.1816 22.216L61.2456 19.808C61.7123 20.0787 62.2303 20.298 62.7996 20.466C63.3783 20.6247 63.9383 20.704 64.4796 20.704C64.7969 20.704 65.0443 20.6853 65.2216 20.648C65.4083 20.6013 65.5436 20.5407 65.6276 20.466C65.7116 20.382 65.7536 20.284 65.7536 20.172C65.7536 19.9947 65.6556 19.8547 65.4596 19.752C65.2636 19.6493 65.0023 19.5653 64.6756 19.5C64.3583 19.4253 64.0083 19.3507 63.6256 19.276C63.2429 19.192 62.8556 19.0847 62.4636 18.954C62.0809 18.8233 61.7263 18.6507 61.3996 18.436C61.0823 18.2213 60.8256 17.9413 60.6296 17.596C60.4336 17.2413 60.3356 16.8027 60.3356 16.28C60.3356 15.6733 60.5036 15.1227 60.8396 14.628C61.1849 14.124 61.6936 13.7227 62.3656 13.424C63.0469 13.1253 63.8916 12.976 64.8996 12.976C65.5623 12.976 66.2156 13.046 66.8596 13.186C67.5036 13.326 68.0823 13.5407 68.5956 13.83L67.6016 16.224C67.1163 15.9813 66.6449 15.7993 66.1876 15.678C65.7396 15.5567 65.3009 15.496 64.8716 15.496C64.5543 15.496 64.3023 15.524 64.1156 15.58C63.9289 15.636 63.7936 15.7107 63.7096 15.804C63.6349 15.8973 63.5976 16 63.5976 16.112C63.5976 16.28 63.6956 16.4153 63.8916 16.518C64.0876 16.6113 64.3443 16.6907 64.6616 16.756C64.9883 16.8213 65.3429 16.8913 65.7256 16.966C66.1176 17.0407 66.5049 17.1433 66.8876 17.274C67.2703 17.4047 67.6203 17.5773 67.9376 17.792C68.2643 18.0067 68.5256 18.2867 68.7216 18.632C68.9176 18.9773 69.0156 19.4067 69.0156 19.92C69.0156 20.5173 68.8429 21.068 68.4976 21.572C68.1616 22.0667 67.6576 22.468 66.9856 22.776C66.3136 23.0747 65.4689 23.224 64.4516 23.224ZM70.4258 23V15.342H73.5898V23H70.4258ZM72.0078 14.726C71.4291 14.726 70.9671 14.572 70.6218 14.264C70.2764 13.956 70.1038 13.5733 70.1038 13.116C70.1038 12.6587 70.2764 12.276 70.6218 11.968C70.9671 11.66 71.4291 11.506 72.0078 11.506C72.5864 11.506 73.0484 11.6507 73.3938 11.94C73.7391 12.2293 73.9118 12.6027 73.9118 13.06C73.9118 13.5453 73.7391 13.9467 73.3938 14.264C73.0484 14.572 72.5864 14.726 72.0078 14.726ZM75.5172 23V12.612H78.6812V23H75.5172ZM82.7786 23L79.6986 15.342H82.9466L85.2846 21.558H83.6466L86.1386 15.342H89.1346L86.0546 23H82.7786ZM94.5039 23V21.642L94.2799 21.278V18.702C94.2799 18.3287 94.1632 18.044 93.9299 17.848C93.7059 17.652 93.3372 17.554 92.8239 17.554C92.4786 17.554 92.1286 17.61 91.7739 17.722C91.4192 17.8247 91.1159 17.9693 90.8639 18.156L89.8559 16.07C90.3039 15.79 90.8406 15.5753 91.4659 15.426C92.0912 15.2767 92.7026 15.202 93.2999 15.202C94.6159 15.202 95.6332 15.496 96.3519 16.084C97.0799 16.672 97.4439 17.6053 97.4439 18.884V23H94.5039ZM92.3339 23.14C91.7086 23.14 91.1859 23.0327 90.7659 22.818C90.3459 22.6033 90.0286 22.3187 89.8139 21.964C89.5992 21.6 89.4919 21.1987 89.4919 20.76C89.4919 20.2653 89.6179 19.8453 89.8699 19.5C90.1219 19.1547 90.5046 18.8933 91.0179 18.716C91.5406 18.5387 92.1986 18.45 92.9919 18.45H94.5879V19.976H93.4959C93.1599 19.976 92.9126 20.032 92.7539 20.144C92.6046 20.2467 92.5299 20.4053 92.5299 20.62C92.5299 20.7973 92.5952 20.9467 92.7259 21.068C92.8659 21.18 93.0526 21.236 93.2859 21.236C93.5006 21.236 93.6966 21.18 93.8739 21.068C94.0606 20.9467 94.1959 20.76 94.2799 20.508L94.6859 21.446C94.5646 22.0153 94.3079 22.44 93.9159 22.72C93.5239 23 92.9966 23.14 92.3339 23.14ZM104.657 15.202C105.245 15.202 105.777 15.3233 106.253 15.566C106.729 15.7993 107.102 16.168 107.373 16.672C107.653 17.176 107.793 17.8293 107.793 18.632V23H104.629V19.178C104.629 18.702 104.545 18.366 104.377 18.17C104.209 17.9647 103.98 17.862 103.691 17.862C103.476 17.862 103.275 17.9133 103.089 18.016C102.911 18.1093 102.767 18.268 102.655 18.492C102.552 18.716 102.501 19.0193 102.501 19.402V23H99.3363V15.342H102.347V17.582L101.745 16.938C102.043 16.3593 102.445 15.9253 102.949 15.636C103.462 15.3467 104.031 15.202 104.657 15.202ZM118.166 23.224C117.345 23.224 116.551 23.1307 115.786 22.944C115.021 22.7573 114.391 22.5147 113.896 22.216L114.96 19.808C115.427 20.0787 115.945 20.298 116.514 20.466C117.093 20.6247 117.653 20.704 118.194 20.704C118.511 20.704 118.759 20.6853 118.936 20.648C119.123 20.6013 119.258 20.5407 119.342 20.466C119.426 20.382 119.468 20.284 119.468 20.172C119.468 19.9947 119.37 19.8547 119.174 19.752C118.978 19.6493 118.717 19.5653 118.39 19.5C118.073 19.4253 117.723 19.3507 117.34 19.276C116.957 19.192 116.57 19.0847 116.178 18.954C115.795 18.8233 115.441 18.6507 115.114 18.436C114.797 18.2213 114.54 17.9413 114.344 17.596C114.148 17.2413 114.05 16.8027 114.05 16.28C114.05 15.6733 114.218 15.1227 114.554 14.628C114.899 14.124 115.408 13.7227 116.08 13.424C116.761 13.1253 117.606 12.976 118.614 12.976C119.277 12.976 119.93 13.046 120.574 13.186C121.218 13.326 121.797 13.5407 122.31 13.83L121.316 16.224C120.831 15.9813 120.359 15.7993 119.902 15.678C119.454 15.5567 119.015 15.496 118.586 15.496C118.269 15.496 118.017 15.524 117.83 15.58C117.643 15.636 117.508 15.7107 117.424 15.804C117.349 15.8973 117.312 16 117.312 16.112C117.312 16.28 117.41 16.4153 117.606 16.518C117.802 16.6113 118.059 16.6907 118.376 16.756C118.703 16.8213 119.057 16.8913 119.44 16.966C119.832 17.0407 120.219 17.1433 120.602 17.274C120.985 17.4047 121.335 17.5773 121.652 17.792C121.979 18.0067 122.24 18.2867 122.436 18.632C122.632 18.9773 122.73 19.4067 122.73 19.92C122.73 20.5173 122.557 21.068 122.212 21.572C121.876 22.0667 121.372 22.468 120.7 22.776C120.028 23.0747 119.183 23.224 118.166 23.224ZM128.368 23.14C127.435 23.14 126.618 22.9673 125.918 22.622C125.228 22.2767 124.691 21.8053 124.308 21.208C123.926 20.6013 123.734 19.92 123.734 19.164C123.734 18.3893 123.921 17.7033 124.294 17.106C124.677 16.5087 125.195 16.042 125.848 15.706C126.511 15.37 127.253 15.202 128.074 15.202C128.83 15.202 129.526 15.3513 130.16 15.65C130.804 15.9487 131.318 16.392 131.7 16.98C132.092 17.568 132.288 18.296 132.288 19.164C132.288 19.276 132.284 19.402 132.274 19.542C132.265 19.6727 132.256 19.794 132.246 19.906H126.352V18.38H130.566L129.376 18.786C129.376 18.4873 129.32 18.2353 129.208 18.03C129.106 17.8153 128.961 17.652 128.774 17.54C128.588 17.4187 128.364 17.358 128.102 17.358C127.841 17.358 127.612 17.4187 127.416 17.54C127.23 17.652 127.085 17.8153 126.982 18.03C126.88 18.2353 126.828 18.4873 126.828 18.786V19.262C126.828 19.5887 126.894 19.8687 127.024 20.102C127.155 20.3353 127.342 20.5127 127.584 20.634C127.827 20.746 128.121 20.802 128.466 20.802C128.821 20.802 129.11 20.7553 129.334 20.662C129.568 20.5687 129.81 20.4287 130.062 20.242L131.714 21.908C131.341 22.3093 130.879 22.6173 130.328 22.832C129.787 23.0373 129.134 23.14 128.368 23.14ZM135.845 23L132.765 15.342H136.013L138.351 21.558H136.713L139.205 15.342H142.201L139.121 23H135.845ZM147.233 23.14C146.299 23.14 145.483 22.9673 144.783 22.622C144.092 22.2767 143.555 21.8053 143.173 21.208C142.79 20.6013 142.599 19.92 142.599 19.164C142.599 18.3893 142.785 17.7033 143.159 17.106C143.541 16.5087 144.059 16.042 144.713 15.706C145.375 15.37 146.117 15.202 146.939 15.202C147.695 15.202 148.39 15.3513 149.025 15.65C149.669 15.9487 150.182 16.392 150.565 16.98C150.957 17.568 151.153 18.296 151.153 19.164C151.153 19.276 151.148 19.402 151.139 19.542C151.129 19.6727 151.12 19.794 151.111 19.906H145.217V18.38H149.431L148.241 18.786C148.241 18.4873 148.185 18.2353 148.073 18.03C147.97 17.8153 147.825 17.652 147.639 17.54C147.452 17.4187 147.228 17.358 146.967 17.358C146.705 17.358 146.477 17.4187 146.281 17.54C146.094 17.652 145.949 17.8153 145.847 18.03C145.744 18.2353 145.693 18.4873 145.693 18.786V19.262C145.693 19.5887 145.758 19.8687 145.889 20.102C146.019 20.3353 146.206 20.5127 146.449 20.634C146.691 20.746 146.985 20.802 147.331 20.802C147.685 20.802 147.975 20.7553 148.199 20.662C148.432 20.5687 148.675 20.4287 148.927 20.242L150.579 21.908C150.205 22.3093 149.743 22.6173 149.193 22.832C148.651 23.0373 147.998 23.14 147.233 23.14ZM157.996 15.202C158.584 15.202 159.116 15.3233 159.592 15.566C160.068 15.7993 160.442 16.168 160.712 16.672C160.992 17.176 161.132 17.8293 161.132 18.632V23H157.968V19.178C157.968 18.702 157.884 18.366 157.716 18.17C157.548 17.9647 157.32 17.862 157.03 17.862C156.816 17.862 156.615 17.9133 156.428 18.016C156.251 18.1093 156.106 18.268 155.994 18.492C155.892 18.716 155.84 19.0193 155.84 19.402V23H152.676V15.342H155.686V17.582L155.084 16.938C155.383 16.3593 155.784 15.9253 156.288 15.636C156.802 15.3467 157.371 15.202 157.996 15.202ZM64.4516 40.224C63.6303 40.224 62.8369 40.1307 62.0716 39.944C61.3063 39.7573 60.6763 39.5147 60.1816 39.216L61.2456 36.808C61.7123 37.0787 62.2303 37.298 62.7996 37.466C63.3783 37.6247 63.9383 37.704 64.4796 37.704C64.7969 37.704 65.0443 37.6853 65.2216 37.648C65.4083 37.6013 65.5436 37.5407 65.6276 37.466C65.7116 37.382 65.7536 37.284 65.7536 37.172C65.7536 36.9947 65.6556 36.8547 65.4596 36.752C65.2636 36.6493 65.0023 36.5653 64.6756 36.5C64.3583 36.4253 64.0083 36.3507 63.6256 36.276C63.2429 36.192 62.8556 36.0847 62.4636 35.954C62.0809 35.8233 61.7263 35.6507 61.3996 35.436C61.0823 35.2213 60.8256 34.9413 60.6296 34.596C60.4336 34.2413 60.3356 33.8027 60.3356 33.28C60.3356 32.6733 60.5036 32.1227 60.8396 31.628C61.1849 31.124 61.6936 30.7227 62.3656 30.424C63.0469 30.1253 63.8916 29.976 64.8996 29.976C65.5623 29.976 66.2156 30.046 66.8596 30.186C67.5036 30.326 68.0823 30.5407 68.5956 30.83L67.6016 33.224C67.1163 32.9813 66.6449 32.7993 66.1876 32.678C65.7396 32.5567 65.3009 32.496 64.8716 32.496C64.5543 32.496 64.3023 32.524 64.1156 32.58C63.9289 32.636 63.7936 32.7107 63.7096 32.804C63.6349 32.8973 63.5976 33 63.5976 33.112C63.5976 33.28 63.6956 33.4153 63.8916 33.518C64.0876 33.6113 64.3443 33.6907 64.6616 33.756C64.9883 33.8213 65.3429 33.8913 65.7256 33.966C66.1176 34.0407 66.5049 34.1433 66.8876 34.274C67.2703 34.4047 67.6203 34.5773 67.9376 34.792C68.2643 35.0067 68.5256 35.2867 68.7216 35.632C68.9176 35.9773 69.0156 36.4067 69.0156 36.92C69.0156 37.5173 68.8429 38.068 68.4976 38.572C68.1616 39.0667 67.6576 39.468 66.9856 39.776C66.3136 40.0747 65.4689 40.224 64.4516 40.224ZM70.4258 40V32.342H73.5898V40H70.4258ZM72.0078 31.726C71.4291 31.726 70.9671 31.572 70.6218 31.264C70.2764 30.956 70.1038 30.5733 70.1038 30.116C70.1038 29.6587 70.2764 29.276 70.6218 28.968C70.9671 28.66 71.4291 28.506 72.0078 28.506C72.5864 28.506 73.0484 28.6507 73.3938 28.94C73.7391 29.2293 73.9118 29.6027 73.9118 30.06C73.9118 30.5453 73.7391 30.9467 73.3938 31.264C73.0484 31.572 72.5864 31.726 72.0078 31.726ZM78.5132 40.14C77.8598 40.14 77.2158 40.07 76.5812 39.93C75.9465 39.79 75.4332 39.608 75.0412 39.384L75.9092 37.298C76.2732 37.5127 76.6932 37.6807 77.1692 37.802C77.6545 37.9233 78.1258 37.984 78.5832 37.984C78.9658 37.984 79.2225 37.9513 79.3532 37.886C79.4932 37.8207 79.5632 37.732 79.5632 37.62C79.5632 37.508 79.4838 37.4287 79.3252 37.382C79.1665 37.326 78.9565 37.284 78.6952 37.256C78.4338 37.228 78.1445 37.1953 77.8272 37.158C77.5192 37.1113 77.2065 37.046 76.8892 36.962C76.5718 36.878 76.2825 36.752 76.0212 36.584C75.7598 36.416 75.5498 36.192 75.3912 35.912C75.2325 35.6227 75.1532 35.2587 75.1532 34.82C75.1532 34.3347 75.2978 33.896 75.5872 33.504C75.8858 33.112 76.3245 32.7993 76.9032 32.566C77.4912 32.3233 78.2145 32.202 79.0732 32.202C79.6332 32.202 80.1932 32.2533 80.7532 32.356C81.3132 32.4587 81.7938 32.6173 82.1952 32.832L81.3272 34.918C80.9352 34.7033 80.5478 34.5587 80.1652 34.484C79.7918 34.4 79.4418 34.358 79.1152 34.358C78.7138 34.358 78.4385 34.3953 78.2892 34.47C78.1492 34.5447 78.0792 34.6287 78.0792 34.722C78.0792 34.834 78.1585 34.918 78.3172 34.974C78.4758 35.03 78.6858 35.072 78.9472 35.1C79.2085 35.128 79.4932 35.1653 79.8012 35.212C80.1185 35.2493 80.4312 35.3147 80.7392 35.408C81.0565 35.492 81.3458 35.618 81.6072 35.786C81.8685 35.954 82.0785 36.1827 82.2372 36.472C82.3958 36.752 82.4752 37.1113 82.4752 37.55C82.4752 38.0073 82.3305 38.4367 82.0412 38.838C81.7518 39.23 81.3132 39.5473 80.7252 39.79C80.1372 40.0233 79.3998 40.14 78.5132 40.14ZM87.6542 40.14C86.5995 40.14 85.7782 39.888 85.1902 39.384C84.6022 38.8707 84.3082 38.0867 84.3082 37.032V30.62H87.4722V37.004C87.4722 37.2373 87.5329 37.4193 87.6542 37.55C87.7849 37.6807 87.9435 37.746 88.1302 37.746C88.4009 37.746 88.6389 37.676 88.8442 37.536L89.6002 39.734C89.3575 39.874 89.0635 39.9767 88.7182 40.042C88.3822 40.1073 88.0275 40.14 87.6542 40.14ZM83.2582 35.072V32.762H89.0402V35.072H83.2582ZM94.9456 40.14C94.0122 40.14 93.1956 39.9673 92.4956 39.622C91.8049 39.2767 91.2682 38.8053 90.8856 38.208C90.5029 37.6013 90.3116 36.92 90.3116 36.164C90.3116 35.3893 90.4982 34.7033 90.8716 34.106C91.2542 33.5087 91.7722 33.042 92.4256 32.706C93.0882 32.37 93.8302 32.202 94.6516 32.202C95.4076 32.202 96.1029 32.3513 96.7376 32.65C97.3816 32.9487 97.8949 33.392 98.2776 33.98C98.6696 34.568 98.8656 35.296 98.8656 36.164C98.8656 36.276 98.8609 36.402 98.8516 36.542C98.8422 36.6727 98.8329 36.794 98.8236 36.906H92.9296V35.38H97.1436L95.9536 35.786C95.9536 35.4873 95.8976 35.2353 95.7856 35.03C95.6829 34.8153 95.5382 34.652 95.3516 34.54C95.1649 34.4187 94.9409 34.358 94.6796 34.358C94.4182 34.358 94.1896 34.4187 93.9936 34.54C93.8069 34.652 93.6622 34.8153 93.5596 35.03C93.4569 35.2353 93.4056 35.4873 93.4056 35.786V36.262C93.4056 36.5887 93.4709 36.8687 93.6016 37.102C93.7322 37.3353 93.9189 37.5127 94.1616 37.634C94.4042 37.746 94.6982 37.802 95.0436 37.802C95.3982 37.802 95.6876 37.7553 95.9116 37.662C96.1449 37.5687 96.3876 37.4287 96.6396 37.242L98.2916 38.908C97.9182 39.3093 97.4562 39.6173 96.9056 39.832C96.3642 40.0373 95.7109 40.14 94.9456 40.14ZM100.389 40V32.342H103.399V34.652L102.909 33.994C103.143 33.3967 103.516 32.9487 104.029 32.65C104.543 32.3513 105.159 32.202 105.877 32.202V35.002C105.737 34.9833 105.611 34.9693 105.499 34.96C105.397 34.9507 105.289 34.946 105.177 34.946C104.701 34.946 104.309 35.072 104.001 35.324C103.703 35.5667 103.553 35.9913 103.553 36.598V40H100.389ZM110.295 40.14C109.642 40.14 108.998 40.07 108.363 39.93C107.729 39.79 107.215 39.608 106.823 39.384L107.691 37.298C108.055 37.5127 108.475 37.6807 108.951 37.802C109.437 37.9233 109.908 37.984 110.365 37.984C110.748 37.984 111.005 37.9513 111.135 37.886C111.275 37.8207 111.345 37.732 111.345 37.62C111.345 37.508 111.266 37.4287 111.107 37.382C110.949 37.326 110.739 37.284 110.477 37.256C110.216 37.228 109.927 37.1953 109.609 37.158C109.301 37.1113 108.989 37.046 108.671 36.962C108.354 36.878 108.065 36.752 107.803 36.584C107.542 36.416 107.332 36.192 107.173 35.912C107.015 35.6227 106.935 35.2587 106.935 34.82C106.935 34.3347 107.08 33.896 107.369 33.504C107.668 33.112 108.107 32.7993 108.685 32.566C109.273 32.3233 109.997 32.202 110.855 32.202C111.415 32.202 111.975 32.2533 112.535 32.356C113.095 32.4587 113.576 32.6173 113.977 32.832L113.109 34.918C112.717 34.7033 112.33 34.5587 111.947 34.484C111.574 34.4 111.224 34.358 110.897 34.358C110.496 34.358 110.221 34.3953 110.071 34.47C109.931 34.5447 109.861 34.6287 109.861 34.722C109.861 34.834 109.941 34.918 110.099 34.974C110.258 35.03 110.468 35.072 110.729 35.1C110.991 35.128 111.275 35.1653 111.583 35.212C111.901 35.2493 112.213 35.3147 112.521 35.408C112.839 35.492 113.128 35.618 113.389 35.786C113.651 35.954 113.861 36.1827 114.019 36.472C114.178 36.752 114.257 37.1113 114.257 37.55C114.257 38.0073 114.113 38.4367 113.823 38.838C113.534 39.23 113.095 39.5473 112.507 39.79C111.919 40.0233 111.182 40.14 110.295 40.14Z" fill="black"/>
</g>
<defs>
<filter id="filter0_i_75_22" x="12.2676" y="8.0177" width="27.7334" height="38.5577" filterUnits="userSpaceOnUse" color-interpolation-filters="sRGB">
<feFlood flood-opacity="0" result="BackgroundImageFix"/>
<feBlend mode="normal" in="SourceGraphic" in2="BackgroundImageFix" result="shape"/>
<feColorMatrix in="SourceAlpha" type="matrix" values="0 0 0 0 0 0 0 0 0 0 0 0 0 0 0 0 0 0 127 0" result="hardAlpha"/>
<feOffset dy="2.10101"/>
<feGaussianBlur stdDeviation="1.05051"/>
<feComposite in2="hardAlpha" operator="arithmetic" k2="-1" k3="1"/>
<feColorMatrix type="matrix" values="0 0 0 0 0 0 0 0 0 0 0 0 0 0 0 0 0 0 0.25 0"/>
<feBlend mode="normal" in2="shape" result="effect1_innerShadow_75_22"/>
</filter>
<clipPath id="clip0_75_22">
<rect width="162" height="52" fill="white"/>
</clipPath>
</defs>
</svg>
